# xmcd
#
# Track frame offsets:
#	182
#	16715
#	34452
#	58595
#	81675
#	91855
#	117615
#	131127
#	145065
#	149900
#	165002
#	182005
#	193742
#	212962
#	229030
#	242732
#	259842
#	278625
#	298300
#	315857
#
# Disc length: 4639 seconds
#
# Revision: 0
# Processed by: cddbd v1.4PL0 Copyright (c) Steve Scherf et al.
# Submitted via: audiograbber 1.81.03
#
DISCID=30121d14
DTITLE=Sonny Boy Williamson - Live In England
DYEAR=1995
DGENRE=Blues
TTITLE0=Bye Bye Bird
TTITLE1=Mister Downchild
TTITLE2=The River Rhine
TTITLE3=23 Hours Too Long
TTITLE4=A Lost Care
TTITLE5=Take It Easy Baby
TTITLE6=Out Of The Water Coast
TTITLE7=Western Arizona
TTITLE8=Slow Walk
TTITLE9=Highway 69
TTITLE10=My Little Cabin
TTITLE11=Sonny's Slow Walk
TTITLE12=Pontiac Blues
TTITLE13=My Babe
TTITLE14=I Don't Care No More
TTITLE15=Baby Don't You Worry
TTITLE16=Night Time Is The Right Time (With Eric Burdon)
TTITLE17=I'm Gonna Put You Down
TTITLE18=Flattenin' Frogs For Snakes
TTITLE19=Nobody But You (With Eric Burdon)
EXTD=
EXTT0=
EXTT1=
EXTT2=
EXTT3=
EXTT4=
EXTT5=
EXTT6=
EXTT7=
EXTT8=
EXTT9=
EXTT10=
EXTT11=
EXTT12=
EXTT13=
EXTT14=
EXTT15=
EXTT16=
EXTT17=
EXTT18=
EXTT19=
PLAYORDER=
